<svg viewBox="0 0 1024 1024" xmlns="http://www.w3.org/2000/svg" width="240" height="240">
  <!-- 蓝色圆角背景 -->
  <path d="M204.078 0h615.845q202.07 0 202.07 202.07v615.845q0 202.07-202.07 202.07H204.077q-202.07 0-202.07-202.07V202.069Q2.008 0 204.078 0z" fill="#4496D3"/>

  <!-- 只保留底部书本 -->
  <path d="M616.087 869.276a106.657 106.657 0 0 0-102.641 77.663 106.657 106.657 0 0 0-102.641-77.663H7.63A202.11 202.11 0 0 0 204.077 1024h615.846a202.11 202.11 0 0 0 196.447-154.724z" fill="#FFFFFF"/>

  <!-- 主体文字图形起始一点 -->
  <g transform="translate(200,115) scale(0.62)" fill="#FFFFFF">
    <path d="M299.121 328.81c5.771 0 11.538 1.436 20.213 4.303 18.795 0 33.204 2.916 44.775 8.669-11.538-8.669-15.878-17.324-15.878-28.891v-11.538h-186.246v665.548c0 15.878-14.433 27.422-44.775 33.204-34.636 5.771-54.864 1.436-56.317-11.538v-76.513c2.916-59.184 4.303-99.613 4.303-121.27v-665.548l-4.303-93.845 4.303-4.303c56.317 15.878 98.165 33.204 121.27 49.098h150.147l15.878-15.878c15.878-15.878 25.99-24.531 28.891-24.531 43.319 13.019 75.089 33.204 98.165 56.317 0 8.669-8.669 17.324-24.531 28.891l-8.669 8.669v194.932c-11.538 15.878-33.204 24.531-64.978 24.531 33.204 11.538 54.864 28.891 69.31 53.431 13.019 27.422 10.106 51.971-8.669 73.62-24.531 18.795-46.207 17.324-64.978-4.303-5.771-5.771-11.538-15.878-15.878-33.204-11.538-46.207-33.204-76.513-64.978-93.845-1.436-11.538 0-15.878 2.916-15.878zM348.211 174.325v-80.854h-174.688c-2.916 2.916-7.206 4.303-11.538 4.303v76.513h186.246zM348.211 279.703v-80.854h-186.246v80.854h186.246zM392.962 657.958c27.422 13.019 53.431 27.422 80.854 40.411 5.771 5.771 5.771 10.106 0 11.538-5.771 2.916-14.433 7.206-28.891 11.538-30.298 98.165-114.055 157.367-251.223 179.033-8.669-2.916-10.106-5.771-4.303-8.669 86.615-37.519 142.931-105.393 170.359-203.557-49.098 18.795-75.089 11.538-76.513-20.213v-141.477l-8.669-60.626 4.303-4.303c46.207 8.669 85.183 21.633 118.398 40.411v4.303h101.072c10.106-24.531 27.422-63.527 49.098-118.398 8.669-21.633 13.019-37.519 15.878-49.098-13.019-2.916-20.213-11.538-20.213-28.891v-190.563l-8.669-93.845c0-2.916 2.916-4.303 8.669-4.303 49.098 13.019 89.507 30.298 121.27 49.098h158.796c21.633-27.422 36.086-40.411 44.775-40.411 51.971 13.019 88.047 33.204 109.703 56.317 0 5.771-7.206 13.019-20.213 24.531l-11.538 11.538v808.48c-5.771 40.411-50.525 62.069-134.256 64.978-8.669 0-11.538-4.303-11.538-11.538-13.019-46.207-46.207-76.513-98.165-89.507-5.771-2.916-5.771-7.206 0-11.538 64.978 15.878 109.703 17.324 134.256 4.303v-589.027h-194.932v20.213c-2.916 11.538-15.878 18.795-40.411 24.531 34.636 13.019 63.527 28.891 85.183 44.775 0 8.669-1.436 11.538-4.303 11.538-2.916 0-8.669 1.436-15.878 4.303-15.878 2.916-27.422 5.771-33.204 8.669l-114.055 93.845h64.978l33.204-33.204c2.916-2.916 7.206-2.916 11.538 0h4.303c5.771 2.916 13.019 7.206 24.531 11.538 18.795 11.538 33.204 20.213 44.775 28.891 2.916 2.916 2.916 7.206 0 11.538-2.916 5.771-10.106 11.538-20.213 20.213v114.055c-27.422 33.204-54.864 36.086-85.183 11.538v-15.878h-4.303c-2.916 8.669-11.538 18.795-28.891 33.204v76.513c-2.916 30.298 10.106 43.319 40.411 40.411h24.531c46.207 2.916 72.17-37.519 76.513-121.27 8.669-5.771 11.538-4.303 11.538 4.303-5.771 49.098 4.303 88.047 28.891 118.398 8.669 8.669 11.538 15.878 11.538 24.531 2.916 34.636-33.204 53.431-109.703 56.317h-53.431c-80.854 2.916-119.828-15.878-118.398-56.317v-174.688h-82.278zM595.050 637.743v-109.703h-206.445c-5.771 2.916-11.538 7.206-20.213 11.538v98.165h226.663zM834.698 174.325v-80.854h-183.344c-2.916 2.916-7.206 4.303-11.538 4.303v76.513h194.932zM834.698 279.703v-80.854h-194.932v80.854h194.932z"/>
  </g>
</svg>
